<svg width="22" height="26" viewBox="0 0 22 26" fill="none" xmlns="http://www.w3.org/2000/svg">
<path d="M22 2.16667V23.8333C22 24.408 21.7893 24.9591 21.4142 25.3654C21.0391 25.7717 20.5304 26 20 26H15.5C14.9696 26 14.4609 25.7717 14.0858 25.3654C13.7107 24.9591 13.5 24.408 13.5 23.8333V2.16667C13.5 1.59203 13.7107 1.04093 14.0858 0.634602C14.4609 0.228273 14.9696 0 15.5 0H20C20.5304 0 21.0391 0.228273 21.4142 0.634602C21.7893 1.04093 22 1.59203 22 2.16667ZM6.5 0H2C1.46957 0 0.960859 0.228273 0.585786 0.634602C0.210714 1.04093 0 1.59203 0 2.16667V23.8333C0 24.408 0.210714 24.9591 0.585786 25.3654C0.960859 25.7717 1.46957 26 2 26H6.5C7.03043 26 7.53914 25.7717 7.91421 25.3654C8.28929 24.9591 8.5 24.408 8.5 23.8333V2.16667C8.5 1.59203 8.28929 1.04093 7.91421 0.634602C7.53914 0.228273 7.03043 0 6.5 0Z" fill="#14401D"/>
</svg>
