<svg width="32" height="32" viewBox="0 0 32 32" fill="none" xmlns="http://www.w3.org/2000/svg">
<path d="M30 16C29.9993 16.3439 29.9104 16.6819 29.7419 16.9817C29.5734 17.2815 29.3309 17.5331 29.0375 17.7125L11.0375 28.7C10.7377 28.89 10.3914 28.994 10.0365 29.0006C9.6816 29.0072 9.3317 28.9162 9.025 28.7375C8.71376 28.5667 8.45431 28.3153 8.27393 28.0095C8.09355 27.7037 7.99892 27.355 8 27V5.00001C7.99892 4.64501 8.09355 4.29628 8.27393 3.99052C8.45431 3.68476 8.71376 3.43326 9.025 3.26251C9.3317 3.0838 9.6816 2.99279 10.0365 2.99941C10.3914 3.00602 10.7377 3.11 11.0375 3.30001L29.0375 14.2875C29.3309 14.4669 29.5734 14.7185 29.7419 15.0183C29.9104 15.3181 29.9993 15.6561 30 16Z" fill="#471515"/>
</svg>
