<svg width="32" height="32" viewBox="0 0 32 32" fill="none" xmlns="http://www.w3.org/2000/svg">
<path d="M31.65 16C31.6515 16.3352 31.5687 16.6654 31.4093 16.9603C31.2499 17.2552 31.0188 17.5052 30.7375 17.6875L19.5875 24.85C19.2849 25.046 18.935 25.1566 18.5747 25.1701C18.2144 25.1836 17.8572 25.0994 17.5408 24.9265C17.2244 24.7536 16.9607 24.4983 16.7775 24.1878C16.5942 23.8773 16.4984 23.523 16.5 23.1625V17.8375L5.58751 24.85C5.28492 25.046 4.93497 25.1566 4.57468 25.1701C4.21439 25.1836 3.85716 25.0994 3.54079 24.9265C3.22442 24.7536 2.96067 24.4983 2.77746 24.1878C2.59424 23.8773 2.49838 23.523 2.50001 23.1625V8.83749C2.49838 8.47696 2.59424 8.12268 2.77746 7.81216C2.96067 7.50164 3.22442 7.24642 3.54079 7.0735C3.85716 6.90058 4.21439 6.81641 4.57468 6.82987C4.93497 6.84334 5.28492 6.95395 5.58751 7.14999L16.5 14.1625V8.83749C16.4984 8.47696 16.5942 8.12268 16.7775 7.81216C16.9607 7.50164 17.2244 7.24642 17.5408 7.0735C17.8572 6.90058 18.2144 6.81641 18.5747 6.82987C18.935 6.84334 19.2849 6.95395 19.5875 7.14999L30.7375 14.3125C31.0188 14.4948 31.2499 14.7448 31.4093 15.0397C31.5687 15.3346 31.6515 15.6648 31.65 16Z" fill="#471515"/>
</svg>
